<?xml version="1.0" encoding="UTF-8"?>
<svg version="1.1" xmlns="http://www.w3.org/2000/svg" width="105" height="105">
<path d="M0 0 C0.84304687 0.40089844 1.68609375 0.80179687 2.5546875 1.21484375 C16.30777068 8.60551929 24.08984614 19.92781349 29.16015625 34.28515625 C31.83428529 46.11351306 31.33930089 60.05359629 26 71 C25.59910156 71.84304687 25.19820313 72.68609375 24.78515625 73.5546875 C17.39448071 87.30777068 6.07218651 95.08984614 -8.28515625 100.16015625 C-20.11351306 102.83428529 -34.05359629 102.33930089 -45 97 C-45.84304687 96.59910156 -46.68609375 96.19820313 -47.5546875 95.78515625 C-61.30777068 88.39448071 -69.08984614 77.07218651 -74.16015625 62.71484375 C-76.83428529 50.88648694 -76.33930089 36.94640371 -71 26 C-70.59910156 25.15695313 -70.19820313 24.31390625 -69.78515625 23.4453125 C-62.39448071 9.69222932 -51.07218651 1.91015386 -36.71484375 -3.16015625 C-24.88648694 -5.83428529 -10.94640371 -5.33930089 0 0 Z " fill="#4EB0AE" transform="translate(75,4)"/>
<path d="M0 0 C1.37152222 -0.00945648 1.37152222 -0.00945648 2.77075195 -0.019104 C3.76034912 -0.01505554 4.74994629 -0.01100708 5.76953125 -0.00683594 C6.78297607 -0.00874939 7.7964209 -0.01066284 8.84057617 -0.01263428 C10.98584237 -0.01399685 13.13111678 -0.01029541 15.27636719 -0.00195312 C18.56854697 0.00874524 21.86018103 -0.00184613 25.15234375 -0.01464844 C27.23307413 -0.01332686 29.31380416 -0.01076449 31.39453125 -0.00683594 C32.38412842 -0.0108844 33.37372559 -0.01493286 34.39331055 -0.019104 C35.30765869 -0.01279968 36.22200684 -0.00649536 37.1640625 0 C38.37412964 0.00238678 38.37412964 0.00238678 39.60864258 0.00482178 C41.58203125 0.25878906 41.58203125 0.25878906 43.58203125 2.25878906 C43.78201449 5.17628041 43.86178012 7.99680835 43.84765625 10.91503906 C43.85052643 12.20214783 43.85052643 12.20214783 43.85345459 13.51525879 C43.85481669 15.33097629 43.85111853 17.14670351 43.84277344 18.96240234 C43.83207416 21.74761756 43.84266778 24.53218775 43.85546875 27.31738281 C43.85414716 29.07910299 43.85158478 30.84082277 43.84765625 32.60253906 C43.85170471 33.43901978 43.85575317 34.27550049 43.85992432 35.1373291 C43.81194959 41.02887072 43.81194959 41.02887072 41.58203125 43.25878906 C39.60864258 43.51948547 39.60864258 43.51948547 37.1640625 43.53344727 C36.24971436 43.54297928 35.33536621 43.55251129 34.39331055 43.56233215 C32.90891479 43.56096504 32.90891479 43.56096504 31.39453125 43.55957031 C30.38108643 43.56385544 29.3676416 43.56814056 28.32348633 43.57255554 C26.17823027 43.57830516 24.03295471 43.57879448 21.88769531 43.57446289 C18.59536702 43.57130187 15.3039359 43.59475835 12.01171875 43.62011719 C9.93099072 43.62238991 7.85026027 43.6230938 5.76953125 43.62207031 C4.77993408 43.63128006 3.79033691 43.64048981 2.77075195 43.64997864 C1.85640381 43.64374985 0.94205566 43.63752106 0 43.63110352 C-1.21006714 43.63204765 -1.21006714 43.63204765 -2.44458008 43.63301086 C-3.42140747 43.44777107 -3.42140747 43.44777107 -4.41796875 43.25878906 C-6.99125322 39.39886236 -6.7059734 36.19819881 -6.68359375 31.72363281 C-6.6855072 30.8891713 -6.68742065 30.05470978 -6.68939209 29.19496155 C-6.69075235 27.43229877 -6.68706698 25.66962592 -6.67871094 23.90698242 C-6.66799558 21.20306013 -6.67861836 18.49980022 -6.69140625 15.79589844 C-6.69008489 14.08430842 -6.68752299 12.37271883 -6.68359375 10.66113281 C-6.68764221 9.84966293 -6.69169067 9.03819305 -6.69586182 8.20213318 C-6.64623084 2.2902202 -6.15567028 0.01214166 0 0 Z " fill="#FEFEFE" transform="translate(25.41796875,31.7412109375)"/>
<path d="M0 0 C0 10.23 0 20.46 0 31 C-4 32 -4 32 -6 31 C-6 30.34 -6 29.68 -6 29 C-6.58265625 28.72027344 -7.1653125 28.44054687 -7.765625 28.15234375 C-12.32968097 25.7985037 -16.06040166 23.54339552 -17.90625 18.546875 C-18.33062927 15.17113081 -18.18251031 13.21389408 -17 10 C-12.8957452 4.74545681 -6.7652902 -1.69132255 0 0 Z " fill="#FAFCFC" transform="translate(91,38)"/>
</svg>
