<?xml version="1.0" encoding="UTF-8"?>
<svg version="1.1" xmlns="http://www.w3.org/2000/svg" width="1080" height="1080">
<path d="M0 0 C356.4 0 712.8 0 1080 0 C1080 356.4 1080 712.8 1080 1080 C723.6 1080 367.2 1080 0 1080 C0 723.6 0 367.2 0 0 Z " fill="#FEFEFE" transform="translate(0,0)"/>
<path d="M0 0 C1.09837692 -0.0033284 2.19675385 -0.0066568 3.32841492 -0.01008606 C5.64561547 -0.01513398 7.96282325 -0.01749505 10.2800293 -0.01733398 C13.80204404 -0.0195175 17.32374382 -0.03768816 20.84570312 -0.05664062 C23.10546769 -0.05957568 25.36523373 -0.06155973 27.625 -0.0625 C28.66699051 -0.06968552 29.70898102 -0.07687103 30.782547 -0.08427429 C39.7157623 -0.05672699 49.38199533 0.10252758 56.0703125 6.70703125 C61.0503727 12.1289673 62.7547665 17.08378862 62.78637695 24.50537109 C62.79590897 25.74040375 62.80544098 26.9754364 62.81526184 28.24789429 C62.81500035 29.5832319 62.81406302 30.91856953 62.8125 32.25390625 C62.8163926 33.63864265 62.82072842 35.02337787 62.82548523 36.40811157 C62.83292705 39.3046659 62.83267132 42.20109831 62.82739258 45.09765625 C62.82160458 48.79171623 62.83852211 52.48527372 62.86173725 56.17925072 C62.87654028 59.03790151 62.87733736 61.89643317 62.87422752 64.75511551 C62.87498391 66.77348289 62.8888043 68.7918319 62.90290833 70.81015015 C62.86860019 77.64742571 62.4654857 82.96364254 59.51171875 89.16796875 C58.85171875 89.16796875 58.19171875 89.16796875 57.51171875 89.16796875 C57.51171875 89.82796875 57.51171875 90.48796875 57.51171875 91.16796875 C56.85171875 91.16796875 56.19171875 91.16796875 55.51171875 91.16796875 C55.51171875 91.82796875 55.51171875 92.48796875 55.51171875 93.16796875 C47.94566052 98.21200757 38.00260488 97.47550774 29.234375 97.46875 C27.98724228 97.47303513 26.74010956 97.47732025 25.45518494 97.48173523 C22.16327677 97.48890467 18.87155415 97.48588513 15.57965088 97.48016357 C13.57715554 97.4804683 11.57495594 97.49051083 9.57250977 97.50415039 C5.68882613 97.52878061 1.80562736 97.53280123 -2.078125 97.53125 C-3.25865952 97.54045975 -4.43919403 97.54966949 -5.65550232 97.55915833 C-12.87925707 97.51927231 -19.74101742 96.94885994 -26.48828125 94.16796875 C-28.42578125 91.79296875 -28.42578125 91.79296875 -29.48828125 89.16796875 C-30.18953125 88.36359375 -30.89078125 87.55921875 -31.61328125 86.73046875 C-35.78223099 81.03290411 -34.64937077 73.12107936 -34.65625 66.33984375 C-34.6612426 64.62356781 -34.6612426 64.62356781 -34.66633606 62.87261963 C-34.67138993 60.45528565 -34.67374486 58.03794472 -34.67358398 55.62060547 C-34.67576529 51.9448683 -34.69392349 48.26943393 -34.71289062 44.59375 C-34.71582599 42.23828227 -34.71780983 39.88281312 -34.71875 37.52734375 C-34.72593552 36.43846863 -34.73312103 35.34959351 -34.74052429 34.22772217 C-34.7140372 25.26580715 -34.58398185 14.31314217 -27.87890625 7.54296875 C-19.30091619 -0.0819113 -11.07331483 0.01175754 0 0 Z " fill="#5B9CFA" transform="translate(287.48828125,505.83203125)"/>
<path d="M0 0 C4.89297012 -0.04955872 9.78579305 -0.0857946 14.67895508 -0.10986328 C16.34239244 -0.11990057 18.00581225 -0.13353331 19.66918945 -0.15087891 C22.06466005 -0.17522749 24.45989668 -0.18650588 26.85546875 -0.1953125 C27.96513252 -0.21079636 27.96513252 -0.21079636 29.09721375 -0.22659302 C33.15052903 -0.2274673 36.46051373 -0.07051983 40 2 C42.38904289 5.20009325 42.25761209 8.32827941 42.265625 12.2265625 C42.26949219 14.0209375 42.26949219 14.0209375 42.2734375 15.8515625 C42.26570313 17.09679687 42.25796875 18.34203125 42.25 19.625 C42.26160156 21.50445313 42.26160156 21.50445313 42.2734375 23.421875 C42.27085937 24.61554687 42.26828125 25.80921875 42.265625 27.0390625 C42.26336914 28.13428223 42.26111328 29.22950195 42.25878906 30.35791016 C42 33 42 33 40 35 C37.50112857 35.24877519 35.11686976 35.37633842 32.61328125 35.40625 C31.87804733 35.41765015 31.14281342 35.42905029 30.38529968 35.4407959 C28.82601682 35.45970443 27.26665388 35.47276732 25.70727539 35.48046875 C23.33790153 35.49979283 20.97206737 35.56176616 18.60351562 35.625 C5.89784394 35.80298222 5.89784394 35.80298222 1.48046875 32.15625 C-1.85102156 28.57800326 -2.12278653 25.20665421 -2.09765625 20.45703125 C-2.09443359 19.38388672 -2.09121094 18.31074219 -2.08789062 17.20507812 C-2.07951172 16.08552734 -2.07113281 14.96597656 -2.0625 13.8125 C-2.05798828 12.68134766 -2.05347656 11.55019531 -2.04882812 10.38476562 C-2.03703498 7.58979073 -2.0205765 4.7949218 -2 2 C-1.34 2 -0.68 2 0 2 C0 1.34 0 0.68 0 0 Z " fill="#E1E9FA" transform="translate(272,535)"/>
<path d="M0 0 C4 2 4 2 4.82128906 3.88842773 C4.96791992 4.64583252 5.11455078 5.4032373 5.265625 6.18359375 C5.43376709 7.02374023 5.60190918 7.86388672 5.77514648 8.72949219 C5.93184814 9.62313477 6.0885498 10.51677734 6.25 11.4375 C6.41765869 12.34532227 6.58531738 13.25314453 6.75805664 14.18847656 C10.03818787 32.83202875 10.03818787 32.83202875 5 41 C2.375 43.6875 2.375 43.6875 -1 45 C-4.23737698 44.50070305 -7.11075148 43.54498763 -10 42 C-10.33 41.34 -10.66 40.68 -11 40 C-13.48090136 41.1450314 -15.52669241 42.38304903 -17.75 44 C-24.80783807 48.34328497 -32.1312007 48.31492652 -40.1875 48.25 C-41.64446289 48.26160156 -41.64446289 48.26160156 -43.13085938 48.2734375 C-44.07123047 48.27085937 -45.01160156 48.26828125 -45.98046875 48.265625 C-46.82504639 48.26336914 -47.66962402 48.26111328 -48.53979492 48.25878906 C-51.30925791 47.96746915 -53.47035063 47.13784787 -56 46 C-56 45.01 -56 44.02 -56 43 C-58.31 42.67 -60.62 42.34 -63 42 C-63 41.34 -63 40.68 -63 40 C-63.99 40 -64.98 40 -66 40 C-66.309375 39.195625 -66.61875 38.39125 -66.9375 37.5625 C-67.76335345 35.10919595 -67.76335345 35.10919595 -69 34 C-69.45790557 27.96642069 -68.7591914 21.97863225 -68 16 C-67.67 16 -67.34 16 -67 16 C-67 19.63 -67 23.26 -67 27 C-66.34 27 -65.68 27 -65 27 C-65 28.65 -65 30.3 -65 32 C-64.34 32 -63.68 32 -63 32 C-63 32.66 -63 33.32 -63 34 C-58.40048503 36.29774192 -54.22693076 36.34195379 -49.19921875 36.4140625 C-48.36284378 36.43342865 -47.52646881 36.4527948 -46.66474915 36.4727478 C-44.0057683 36.53230192 -41.3467436 36.57883174 -38.6875 36.625 C-36.87953891 36.66320206 -35.07159558 36.70225509 -33.26367188 36.7421875 C-28.84259302 36.83798345 -24.42142899 36.92210331 -20 37 C-20 36.34 -20 35.68 -20 35 C-19.34 34.67 -18.68 34.34 -18 34 C-17.67 26.08 -17.34 18.16 -17 10 C-16.34 10.33 -15.68 10.66 -15 11 C-15.33 15.95 -15.66 20.9 -16 26 C-15.34 26 -14.68 26 -14 26 C-12.64613064 27.65002828 -11.31321858 29.3174387 -10 31 C-9.34 31.33 -8.68 31.66 -8 32 C-8 32.66 -8 33.32 -8 34 C-5.03 34.66 -2.06 35.32 1 36 C0.67 24.12 0.34 12.24 0 0 Z " fill="#2769CA" transform="translate(334,535)"/>
<path d="M0 0 C0 11.22 0 22.44 0 34 C-7 33 -7 33 -9 32 C-9 31.34 -9 30.68 -9 30 C-9.928125 29.566875 -9.928125 29.566875 -10.875 29.125 C-13 28 -13 28 -15 26 C-15.22552341 23.14434641 -15.32428763 20.4174649 -15.3125 17.5625 C-15.32861328 16.78583984 -15.34472656 16.00917969 -15.36132812 15.20898438 C-15.36628191 9.45764445 -15.36628191 9.45764445 -13.60229492 7.25366211 C-12 6 -12 6 -10 6 C-9.8453125 5.071875 -9.8453125 5.071875 -9.6875 4.125 C-8.07570944 -0.85689809 -4.77131144 0 0 0 Z " fill="#DFE7F9" transform="translate(335,537)"/>
<path d="M0 0 C0.33 0 0.66 0 1 0 C1.07405295 4.80546679 1.12855497 9.6106029 1.16479492 14.41650391 C1.17989911 16.05197941 1.20038389 17.68741429 1.22631836 19.32275391 C1.26263145 21.67100024 1.27970932 24.01871205 1.29296875 26.3671875 C1.30845261 27.10057343 1.32393646 27.83395935 1.33988953 28.58956909 C1.34057617 30.65185547 1.34057617 30.65185547 1 34 C-2.51824511 36.34549674 -3.85775694 36.57991403 -8 36 C-10.625 33.5625 -10.625 33.5625 -13 31 C-15.17346568 30.13880866 -15.17346568 30.13880866 -17 30 C-17.33 31.32 -17.66 32.64 -18 34 C-19.98 34.495 -19.98 34.495 -22 35 C-22 35.66 -22 36.32 -22 37 C-33.88 37 -45.76 37 -58 37 C-58 36.01 -58 35.02 -58 34 C-45.79 34 -33.58 34 -21 34 C-20.1437616 30.5750464 -19.81353347 27.84918455 -19.68359375 24.359375 C-19.62075195 22.75449219 -19.62075195 22.75449219 -19.55664062 21.1171875 C-19.51732422 20.00601563 -19.47800781 18.89484375 -19.4375 17.75 C-19.37272461 16.06003906 -19.37272461 16.06003906 -19.30664062 14.3359375 C-19.20067985 11.55741046 -19.09860858 8.77879609 -19 6 C-18.34 6.33 -17.68 6.66 -17 7 C-17.33 11.95 -17.66 16.9 -18 22 C-17.34 22 -16.68 22 -16 22 C-14.64613064 23.65002828 -13.31321858 25.3174387 -12 27 C-11.34 27.33 -10.68 27.66 -10 28 C-10 28.66 -10 29.32 -10 30 C-5.545 30.99 -5.545 30.99 -1 32 C-1.01160156 31.36578125 -1.02320313 30.7315625 -1.03515625 30.078125 C-1.13229877 20.03081267 -0.55495361 10.02880453 0 0 Z " fill="#1A3374" transform="translate(336,539)"/>
<path d="M0 0 C0.33 0 0.66 0 1 0 C1 3.63 1 7.26 1 11 C1.66 11 2.32 11 3 11 C3 12.65 3 14.3 3 16 C3.66 16 4.32 16 5 16 C5 16.66 5 17.32 5 18 C9.59951497 20.29774192 13.77306924 20.34195379 18.80078125 20.4140625 C19.63715622 20.43342865 20.47353119 20.4527948 21.33525085 20.4727478 C23.9942317 20.53230192 26.6532564 20.57883174 29.3125 20.625 C31.12046109 20.66320206 32.92840442 20.70225509 34.73632812 20.7421875 C39.15740698 20.83798345 43.57857101 20.92210331 48 21 C48 20.34 48 19.68 48 19 C48.66 19.33 49.32 19.66 50 20 C49.67 20.66 49.34 21.32 49 22 C36.79 22 24.58 22 12 22 C12 22.99 12 23.98 12 25 C23.88 25 35.76 25 48 25 C47.67 25.66 47.34 26.32 47 27 C41.50073576 27.02470469 36.00150378 27.04286223 30.50219727 27.05493164 C28.63109779 27.05996279 26.76000225 27.06678835 24.88891602 27.07543945 C22.20067372 27.08755829 19.51248336 27.09324047 16.82421875 27.09765625 C15.98662521 27.10281754 15.14903168 27.10797882 14.28605652 27.11329651 C10.93624258 27.11362064 8.20053544 27.06684515 5 26 C5 25.34 5 24.68 5 24 C4.01 24 3.02 24 2 24 C1.690625 23.195625 1.38125 22.39125 1.0625 21.5625 C0.23664655 19.10919595 0.23664655 19.10919595 -1 18 C-1.45790557 11.96642069 -0.7591914 5.97863225 0 0 Z " fill="#355DAC" transform="translate(266,551)"/>
<path d="M0 0 C7.25888325 0.98984772 7.25888325 0.98984772 10 3 C14 8.71034483 14 8.71034483 14 12 C14.66 12 15.32 12 16 12 C18.15158329 18.9887817 18.27561876 25.4971181 18.23046875 32.77734375 C18.22978142 34.58798058 18.22978142 34.58798058 18.2290802 36.43519592 C18.22607111 38.97251373 18.21822532 41.50982992 18.20581055 44.04711914 C18.18744683 47.94879621 18.18530178 51.85023717 18.18554688 55.75195312 C18.1806353 58.21875207 18.17480857 60.6855494 18.16796875 63.15234375 C18.16685593 64.32514389 18.1657431 65.49794403 18.16459656 66.70628357 C18.15821671 67.78152786 18.15183685 68.85677216 18.14526367 69.96459961 C18.13954597 71.39067787 18.13954597 71.39067787 18.13371277 72.8455658 C18 75 18 75 17 76 C16.63239269 78.32817964 16.29758419 80.6618385 16 83 C15.34 83 14.68 83 14 83 C14.00888245 82.19313248 14.01776489 81.38626495 14.0269165 80.5549469 C14.10734085 72.9201052 14.16810487 65.2854713 14.20724869 57.65031528 C14.22805011 53.72575754 14.25622951 49.80155223 14.30175781 45.87719727 C14.34548418 42.0840659 14.36919299 38.29127176 14.37950897 34.49790764 C14.38685268 33.0567183 14.40119244 31.61554568 14.42292023 30.17450142 C14.56412152 20.41412691 13.97286287 12.7878091 7.5625 5.0625 C5.07711464 3.06206788 3.02835119 1.95176752 0 1 C0 0.67 0 0.34 0 0 Z " fill="#E4EFFE" transform="translate(335,507)"/>
<path d="M0 0 C0.33 0 0.66 0 1 0 C1.01458252 0.6705542 1.02916504 1.3411084 1.04418945 2.03198242 C1.118883 5.08438822 1.21547299 8.13572585 1.3125 11.1875 C1.33505859 12.24259766 1.35761719 13.29769531 1.38085938 14.38476562 C1.41630859 15.40634766 1.45175781 16.42792969 1.48828125 17.48046875 C1.51446533 18.41785889 1.54064941 19.35524902 1.56762695 20.32104492 C2.21661104 24.34210782 3.92664331 26.8688531 6.70043945 29.79199219 C10.00513755 31.52802002 13.1521264 31.39056578 16.79296875 31.328125 C17.53960281 31.32625183 18.28623688 31.32437866 19.05549622 31.32244873 C20.6281076 31.31574307 22.20070271 31.30185805 23.77319336 31.28125 C26.18944667 31.2499748 28.60504832 31.24026575 31.02148438 31.234375 C32.54948718 31.22520952 34.07748332 31.21483521 35.60546875 31.203125 C36.33146774 31.19887512 37.05746674 31.19462524 37.8054657 31.19024658 C41.19014228 31.4366741 41.19014228 31.4366741 44 30 C44.08775605 27.85441173 44.10695219 25.70595579 44.09765625 23.55859375 C44.09443359 22.25341797 44.09121094 20.94824219 44.08789062 19.60351562 C44.07953401 18.2148431 44.07106905 16.82617123 44.0625 15.4375 C44.05748666 14.04492344 44.05292347 12.65234519 44.04882812 11.25976562 C44.03699434 7.8398013 44.0205088 4.41992156 44 1 C44.66 1.33 45.32 1.66 46 2 C47.09911549 5.29734646 47.1139456 7.72958745 47.09765625 11.19921875 C47.09443359 12.40771484 47.09121094 13.61621094 47.08789062 14.86132812 C47.07532227 16.7552832 47.07532227 16.7552832 47.0625 18.6875 C47.05798828 19.96173828 47.05347656 21.23597656 47.04882812 22.54882812 C47.03702873 25.69926564 47.02056597 28.84960949 47 32 C46.34 32 45.68 32 45 32 C45 32.66 45 33.32 45 34 C39.67979978 34.07429915 34.35990331 34.12867247 29.03930664 34.16479492 C27.23033383 34.17985755 25.4213974 34.20031177 23.61254883 34.22631836 C21.00853485 34.2628132 18.4050048 34.27975157 15.80078125 34.29296875 C14.99538406 34.30845261 14.18998688 34.32393646 13.36018372 34.33988953 C8.77732441 34.34125516 5.69243043 34.04242953 2 31 C2 30.34 2 29.68 2 29 C1.34 29 0.68 29 0 29 C0 19.43 0 9.86 0 0 Z " fill="#ABB9E1" transform="translate(269,538)"/>
<path d="M0 0 C-0.33 0.99 -0.66 1.98 -1 3 C-1.14889747 4.84466442 -1.2479101 6.69357275 -1.31640625 8.54296875 C-1.35830078 9.61611328 -1.40019531 10.68925781 -1.44335938 11.79492188 C-1.50233398 13.47424805 -1.50233398 13.47424805 -1.5625 15.1875 C-1.60568359 16.31865234 -1.64886719 17.44980469 -1.69335938 18.61523438 C-1.79949099 21.41003354 -1.90154385 24.20492162 -2 27 C-2.66 27 -3.32 27 -4 27 C-4.33 26.34 -4.66 25.68 -5 25 C-5.33 27.31 -5.66 29.62 -6 32 C-9.32016572 28.67983428 -8.36887358 24.38404777 -8.375 19.875 C-8.39949219 18.94945312 -8.42398437 18.02390625 -8.44921875 17.0703125 C-8.47655132 10.61982547 -7.41677777 6.49986906 -4 1 C-2 0 -2 0 0 0 Z " fill="#4E88E1" transform="translate(271,535)"/>
<path d="M0 0 C0.33 0 0.66 0 1 0 C1.07405295 4.80546679 1.12855497 9.6106029 1.16479492 14.41650391 C1.17989911 16.05197941 1.20038389 17.68741429 1.22631836 19.32275391 C1.26263145 21.67100024 1.27970932 24.01871205 1.29296875 26.3671875 C1.30845261 27.10057343 1.32393646 27.83395935 1.33988953 28.58956909 C1.34057617 30.65185547 1.34057617 30.65185547 1 34 C-2.51824511 36.34549674 -3.85775694 36.57991403 -8 36 C-10.625 33.5625 -10.625 33.5625 -13 31 C-15.17346568 30.13880866 -15.17346568 30.13880866 -17 30 C-17 27.36 -17 24.72 -17 22 C-15.8274869 22.95117134 -14.66212985 23.91117009 -13.5 24.875 C-12.8503125 25.40867187 -12.200625 25.94234375 -11.53125 26.4921875 C-11.0259375 26.98976563 -10.520625 27.48734375 -10 28 C-10 28.66 -10 29.32 -10 30 C-5.545 30.99 -5.545 30.99 -1 32 C-1.01160156 31.36578125 -1.02320313 30.7315625 -1.03515625 30.078125 C-1.13229877 20.03081267 -0.55495361 10.02880453 0 0 Z " fill="#304A8A" transform="translate(336,539)"/>
<path d="M0 0 C-0.66 1.32 -1.32 2.64 -2 4 C-2.66 4 -3.32 4 -4 4 C-4.0825 4.598125 -4.165 5.19625 -4.25 5.8125 C-5 8 -5 8 -7 9.15625 C-9.52101781 11.48031329 -9.5456613 13.25534507 -9.70703125 16.59570312 C-9.72121094 17.28599609 -9.73539062 17.97628906 -9.75 18.6875 C-9.77964844 19.38939453 -9.80929687 20.09128906 -9.83984375 20.81445312 C-9.91037033 22.54235424 -9.95747068 24.2711832 -10 26 C-10.66 26 -11.32 26 -12 26 C-11.98839844 24.92878906 -11.97679687 23.85757813 -11.96484375 22.75390625 C-11.95546701 21.35677257 -11.94636669 19.95963701 -11.9375 18.5625 C-11.92912109 17.85544922 -11.92074219 17.14839844 -11.91210938 16.41992188 C-11.90346412 14.61306441 -11.94779989 12.80612397 -12 11 C-12.33 10.67 -12.66 10.34 -13 10 C-13 17.92 -13 25.84 -13 34 C-13.33 34 -13.66 34 -14 34 C-14.029729 32.86570557 -14.029729 32.86570557 -14.06005859 31.70849609 C-14.15564572 28.26366282 -14.26518891 24.81940799 -14.375 21.375 C-14.4059375 20.18519531 -14.436875 18.99539063 -14.46875 17.76953125 C-14.50742187 16.61582031 -14.54609375 15.46210937 -14.5859375 14.2734375 C-14.6173584 13.21560059 -14.6487793 12.15776367 -14.68115234 11.06787109 C-15.01995688 7.80798001 -15.85610583 5.06242545 -17 2 C-13.125 3.75 -13.125 3.75 -12 6 C-9.05908413 5.81584568 -9.05908413 5.81584568 -6 5 C-4.69934079 3.06616713 -4.69934079 3.06616713 -4 1 C-2 0 -2 0 0 0 Z " fill="#6C81B5" transform="translate(330,535)"/>
<path d="M0 0 C7.25888325 0.98984772 7.25888325 0.98984772 10 3 C14 8.71034483 14 8.71034483 14 12 C14.66 12 15.32 12 16 12 C16 35.43 16 58.86 16 83 C15.34 83 14.68 83 14 83 C14.00888245 82.19313248 14.01776489 81.38626495 14.0269165 80.5549469 C14.10734085 72.9201052 14.16810487 65.2854713 14.20724869 57.65031528 C14.22805011 53.72575754 14.25622951 49.80155223 14.30175781 45.87719727 C14.34548418 42.0840659 14.36919299 38.29127176 14.37950897 34.49790764 C14.38685268 33.0567183 14.40119244 31.61554568 14.42292023 30.17450142 C14.56412152 20.41412691 13.97286287 12.7878091 7.5625 5.0625 C5.07711464 3.06206788 3.02835119 1.95176752 0 1 C0 0.67 0 0.34 0 0 Z " fill="#95C0FD" transform="translate(335,507)"/>
<path d="M0 0 C-0.47050781 0.3403125 -0.94101562 0.680625 -1.42578125 1.03125 C-7.80901466 6.00039236 -9.67594025 10.86804958 -10.77514648 18.76152039 C-11.25952145 23.58360856 -11.24435354 28.43496334 -11.31640625 33.27734375 C-11.33718735 34.4438295 -11.35796844 35.61031525 -11.37937927 36.81214905 C-11.44450911 40.52054224 -11.50358917 44.22900332 -11.5625 47.9375 C-11.60572001 50.45899126 -11.6493354 52.98047577 -11.69335938 55.50195312 C-11.80015284 61.66789799 -11.9019857 67.83390967 -12 74 C-12.33 74 -12.66 74 -13 74 C-13 53.21 -13 32.42 -13 11 C-12.34 11 -11.68 11 -11 11 C-10.87625 10.443125 -10.7525 9.88625 -10.625 9.3125 C-9.94023145 6.77885636 -9.00866237 4.42078968 -8 2 C-7.34 2 -6.68 2 -6 2 C-6 1.34 -6 0.68 -6 0 C-3 -1 -3 -1 0 0 Z " fill="#BFD9FD" transform="translate(265,510)"/>
<path d="M0 0 C0.99 0.495 0.99 0.495 2 1 C1.67 1.66 1.34 2.32 1 3 C0.34 3 -0.32 3 -1 3 C-1 3.66 -1 4.32 -1 5 C-4.22791555 7.1519437 -5.28400809 7.20086443 -9 7 C-9 7.66 -9 8.32 -9 9 C-17.53621693 9.0695219 -26.07231549 9.12282218 -34.60874557 9.15543652 C-38.5725988 9.17109008 -42.53625828 9.19232243 -46.5 9.22631836 C-50.32551222 9.25892327 -54.15083812 9.27685534 -57.97647858 9.28463173 C-59.43573184 9.29017325 -60.89497495 9.30099456 -62.35414886 9.31719017 C-64.398758 9.33898033 -66.44259805 9.34196639 -68.48730469 9.34057617 C-70.23270538 9.35056892 -70.23270538 9.35056892 -72.0133667 9.36076355 C-75.26855159 8.96756092 -76.62744168 8.20240482 -79 6 C-78.13058777 6.16200394 -77.26117554 6.32400787 -76.36541748 6.49092102 C-73.23186777 6.9649259 -70.31785559 7.13304071 -67.15332031 7.14526367 C-66.0248468 7.15164352 -64.89637329 7.15802338 -63.73370361 7.16459656 C-62.52736267 7.16570938 -61.32102173 7.1668222 -60.078125 7.16796875 C-58.19537872 7.17296135 -58.19537872 7.17296135 -56.27459717 7.17805481 C-53.62183073 7.1831109 -50.96916679 7.185897 -48.31640625 7.18530273 C-44.94325806 7.18520142 -41.5703218 7.19883125 -38.19722366 7.21607494 C-34.9491991 7.22997598 -31.70117522 7.22928659 -28.453125 7.23046875 C-26.65575897 7.24124702 -26.65575897 7.24124702 -24.82208252 7.25224304 C-16.87849532 7.23082524 -9.55771379 6.51923793 -2 4 C-2 3.34 -2 2.68 -2 2 C-1.34 2 -0.68 2 0 2 C0 1.34 0 0.68 0 0 Z " fill="#BAD8FC" transform="translate(345,595)"/>
<path d="M0 0 C1.98 0.99 1.98 0.99 4 2 C4.6027832 3.92797852 4.6027832 3.92797852 4.73828125 6.31640625 C4.79322754 7.21246582 4.84817383 8.10852539 4.90478516 9.03173828 C5.07493415 14.33602411 5.18437623 19.63022045 5.1875 24.9375 C5.19974609 26.05962891 5.21199219 27.18175781 5.22460938 28.33789062 C5.22654297 29.41103516 5.22847656 30.48417969 5.23046875 31.58984375 C5.23457764 32.55784912 5.23868652 33.52585449 5.24291992 34.52319336 C5 37 5 37 3 40 C2.67 34.72 2.34 29.44 2 24 C1.67 24 1.34 24 1 24 C0.67 16.08 0.34 8.16 0 0 Z " fill="#3665B5" transform="translate(334,535)"/>
<path d="M0 0 C1.27457062 -0.00637985 2.54914124 -0.0127597 3.86233521 -0.01933289 C5.24920616 -0.0208611 6.63607762 -0.02197531 8.02294922 -0.02270508 C9.44733717 -0.02591892 10.8717248 -0.02928309 12.29611206 -0.03279114 C15.27684292 -0.03877107 18.25754482 -0.04063205 21.23828125 -0.04003906 C25.06290732 -0.03993714 28.88734898 -0.05362491 32.71193123 -0.07081127 C35.65095886 -0.08190875 38.58994144 -0.08395902 41.52898788 -0.08342934 C42.93963129 -0.08461149 44.35027579 -0.0890464 45.76089859 -0.0967617 C47.72859571 -0.10652186 49.69634696 -0.10242964 51.6640625 -0.09765625 C53.34473312 -0.09979378 53.34473312 -0.09979378 55.05935669 -0.10197449 C57.70263672 0.14526367 57.70263672 0.14526367 59.70263672 2.14526367 C58.97902451 2.14304306 58.25541229 2.14082245 57.50987244 2.13853455 C50.66905002 2.11844398 43.82823205 2.10324497 36.98738766 2.0934515 C33.47098971 2.08824723 29.95461627 2.08119449 26.43823242 2.06982422 C22.38964613 2.05681595 18.34108533 2.05201516 14.29248047 2.04760742 C13.03805649 2.04244614 11.78363251 2.03728485 10.49119568 2.03196716 C3.33803858 2.03150956 -3.37143148 2.20600277 -10.29736328 4.14526367 C-10.29736328 3.15526367 -10.29736328 2.16526367 -10.29736328 1.14526367 C-6.8255799 0.08428525 -3.61986491 0.01229744 0 0 Z " fill="#B1CAFE" transform="translate(275.29736328125,504.854736328125)"/>
<path d="M0 0 C4.48247717 6.72371576 4.84153494 17.06552772 4 25 C3.02712454 29.72539509 1.72107462 32.34162752 -1.875 35.625 C-5 37 -5 37 -7.875 36.25 C-8.926875 35.63125 -8.926875 35.63125 -10 35 C-10 34.67 -10 34.34 -10 34 C-6.7 33.34 -3.4 32.68 0 32 C0 21.44 0 10.88 0 0 Z " fill="#4886E2" transform="translate(338,543)"/>
<path d="M0 0 C0.66 0.33 1.32 0.66 2 1 C-5.85356019 6.89017014 -13.63242277 7.32700532 -23.1875 7.25 C-24.64446289 7.26160156 -24.64446289 7.26160156 -26.13085938 7.2734375 C-27.07123047 7.27085937 -28.01160156 7.26828125 -28.98046875 7.265625 C-29.82504639 7.26336914 -30.66962402 7.26111328 -31.53979492 7.25878906 C-34.30925791 6.96746915 -36.47035063 6.13784787 -39 5 C-39 4.34 -39 3.68 -39 3 C-37.54762939 3.02356567 -37.54762939 3.02356567 -36.06591797 3.04760742 C-32.45418706 3.10213985 -28.84249215 3.13643419 -25.23046875 3.16479492 C-23.67083606 3.17982869 -22.11124528 3.20026135 -20.55175781 3.22631836 C-18.30262884 3.26294211 -16.05406153 3.27978021 -13.8046875 3.29296875 C-13.1138205 3.30845261 -12.42295349 3.32393646 -11.71115112 3.33988953 C-7.02818127 3.34149673 -4.07800223 2.19454054 0 0 Z " fill="#2873DB" transform="translate(317,576)"/>
<path d="M0 0 C0.33 0 0.66 0 1 0 C1 3.63 1 7.26 1 11 C1.66 11 2.32 11 3 11 C3.02578125 11.60328125 3.0515625 12.2065625 3.078125 12.828125 C3.40394774 17.98332868 3.40394774 17.98332868 5.8125 22.4375 C7.82254687 23.87324777 9.73147398 25.02777456 12 26 C8.98968256 26.93423645 8.13349732 27.04449911 5 26 C5 25.34 5 24.68 5 24 C4.01 24 3.02 24 2 24 C1.690625 23.195625 1.38125 22.39125 1.0625 21.5625 C0.23664655 19.10919595 0.23664655 19.10919595 -1 18 C-1.45790557 11.96642069 -0.7591914 5.97863225 0 0 Z " fill="#3677D9" transform="translate(266,551)"/>
<path d="M0 0 C0.33 0 0.66 0 1 0 C1 6.6 1 13.2 1 20 C-6 19 -6 19 -8 18 C-8 17.34 -8 16.68 -8 16 C-8.99 15.67 -9.98 15.34 -11 15 C-9.68 14.67 -8.36 14.34 -7 14 C-6.67 14.66 -6.34 15.32 -6 16 C-4.68 16.33 -3.36 16.66 -2 17 C-1.34 11.39 -0.68 5.78 0 0 Z " fill="#A5B3DD" transform="translate(334,551)"/>
<path d="M0 0 C-0.33 0.99 -0.66 1.98 -1 3 C-1.14889747 4.84466442 -1.2479101 6.69357275 -1.31640625 8.54296875 C-1.35830078 9.61611328 -1.40019531 10.68925781 -1.44335938 11.79492188 C-1.48267578 12.91447266 -1.52199219 14.03402344 -1.5625 15.1875 C-1.60568359 16.31865234 -1.64886719 17.44980469 -1.69335938 18.61523438 C-1.79949099 21.41003354 -1.90154385 24.20492162 -2 27 C-2.66 27 -3.32 27 -4 27 C-4 18.42 -4 9.84 -4 1 C-2 0 -2 0 0 0 Z " fill="#5E75AC" transform="translate(271,535)"/>
<path d="M0 0 C13.53 0 27.06 0 41 0 C41.495 2.475 41.495 2.475 42 5 C41.505 4.01 41.505 4.01 41 3 C36.71528342 1.73715225 32.28956664 1.78376576 27.85546875 1.68359375 C26.7007885 1.6524221 26.7007885 1.6524221 25.52278137 1.62062073 C23.07777333 1.55553951 20.63266317 1.49643409 18.1875 1.4375 C16.52407823 1.39427532 14.86066656 1.35065979 13.19726562 1.30664062 C9.13161352 1.19990093 5.06585929 1.09851829 1 1 C0.67 1.66 0.34 2.32 0 3 C0 2.01 0 1.02 0 0 Z " fill="#88ACE9" transform="translate(271,534)"/>
<path d="M0 0 C-1.3744034 3.21154563 -2.84256886 4.79676088 -5.5625 6.9375 C-9.15481076 10.33603466 -9.58780573 13.06297375 -9.9375 17.9375 C-9.98988559 19.95776165 -10.02127188 21.97917124 -10 24 C-9.34 24 -8.68 24 -8 24 C-8.33 25.32 -8.66 26.64 -9 28 C-11.61042212 25.38957788 -11.28846788 23.48878815 -11.32226562 19.92773438 C-11.31904297 19.14720703 -11.31582031 18.36667969 -11.3125 17.5625 C-11.32861328 16.78583984 -11.34472656 16.00917969 -11.36132812 15.20898438 C-11.36628191 9.45764445 -11.36628191 9.45764445 -9.60229492 7.25366211 C-8 6 -8 6 -6 6 C-5.8453125 5.071875 -5.8453125 5.071875 -5.6875 4.125 C-4.72223986 1.14146864 -3.16449578 0 0 0 Z " fill="#DFE4F1" transform="translate(331,537)"/>
<path d="M0 0 C7.25888325 0.98984772 7.25888325 0.98984772 10 3 C14 8.71034483 14 8.71034483 14 12 C14.66 12 15.32 12 16 12 C16 16.29 16 20.58 16 25 C15.67 25 15.34 25 15 25 C14.9175 23.865625 14.835 22.73125 14.75 21.5625 C13.80227872 14.13868329 10.90006288 7.7488311 5 3 C2.33466965 1.680982 2.33466965 1.680982 0 1 C0 0.67 0 0.34 0 0 Z " fill="#B7D0FE" transform="translate(335,507)"/>
<path d="M0 0 C1.1725131 0.95117134 2.33787015 1.91117009 3.5 2.875 C4.47453125 3.67550781 4.47453125 3.67550781 5.46875 4.4921875 C5.9740625 4.98976563 6.479375 5.48734375 7 6 C7 6.66 7 7.32 7 8 C7.66 8 8.32 8 9 8 C9.66 9.65 10.32 11.3 11 13 C7.63486826 12.41980487 6.36548527 11.36548527 4 9 C1.89667109 8.28552357 1.89667109 8.28552357 0 8 C0 5.36 0 2.72 0 0 Z " fill="#2A4C93" transform="translate(319,561)"/>
<path d="M0 0 C0.33 0 0.66 0 1 0 C1.01401855 0.98226562 1.01401855 0.98226562 1.02832031 1.984375 C1.0824526 4.99030905 1.16601389 7.99475775 1.25 11 C1.26417969 12.02996094 1.27835937 13.05992187 1.29296875 14.12109375 C1.50622688 20.81739894 2.53970752 25.24207331 6 31 C5.34 31.33 4.68 31.66 4 32 C3.34 31.67 2.68 31.34 2 31 C2 30.34 2 29.68 2 29 C1.34 29 0.68 29 0 29 C0 19.43 0 9.86 0 0 Z " fill="#A1AED3" transform="translate(269,538)"/>
<path d="M0 0 C-0.47050781 0.3403125 -0.94101562 0.680625 -1.42578125 1.03125 C-7.53350345 5.78591573 -9.54539179 10.46208584 -10.6875 18 C-10.790625 18.99 -10.89375 19.98 -11 21 C-11.33 21 -11.66 21 -12 21 C-12.38113277 14.01256592 -11.13941257 8.27882515 -8 2 C-7.34 2 -6.68 2 -6 2 C-6 1.34 -6 0.68 -6 0 C-3 -1 -3 -1 0 0 Z " fill="#B2CDFE" transform="translate(265,510)"/>
<path d="M0 0 C0.33 0 0.66 0 1 0 C1.25060425 1.89311883 1.47460633 3.78977039 1.6875 5.6875 C1.81511719 6.74324219 1.94273437 7.79898438 2.07421875 8.88671875 C1.98722262 12.53597747 1.21773887 14.13710073 -1 17 C-4.1875 18.8125 -4.1875 18.8125 -7 20 C-8.32 19.01 -9.64 18.02 -11 17 C-7.7 16.34 -4.4 15.68 -1 15 C-0.67 10.05 -0.34 5.1 0 0 Z " fill="#3277DC" transform="translate(339,560)"/>
<path d="M0 0 C0.66 0 1.32 0 2 0 C2 0.66 2 1.32 2 2 C2.78375 2.2475 3.5675 2.495 4.375 2.75 C7.32317108 4.15389099 7.9024777 5.00675737 9 8 C3.56603774 7.39622642 3.56603774 7.39622642 1.125 5.6875 C0 4 0 4 0 0 Z " fill="#2E519B" transform="translate(269,567)"/>
<path d="M0 0 C0.33 0 0.66 0 1 0 C1 3.63 1 7.26 1 11 C1.66 11 2.32 11 3 11 C3 13.64 3 16.28 3 19 C1 18 1 18 0 15 C-0.07029121 12.42734182 -0.09370832 9.88358569 -0.0625 7.3125 C-0.05798828 6.61060547 -0.05347656 5.90871094 -0.04882812 5.18554688 C-0.03706927 3.45699462 -0.01913454 1.72848635 0 0 Z " fill="#3767BA" transform="translate(266,551)"/>
<path d="M0 0 C2.375 0.3125 2.375 0.3125 5 1 C5.66 1.99 6.32 2.98 7 4 C5.63875 3.9071875 5.63875 3.9071875 4.25 3.8125 C0.65620765 4.01983417 -0.34536943 4.72460237 -3 7 C-3.66 7 -4.32 7 -5 7 C-5 6.34 -5 5.68 -5 5 C-4.360625 4.731875 -3.72125 4.46375 -3.0625 4.1875 C-0.66868314 3.11332248 -0.66868314 3.11332248 0 0 Z " fill="#2960BB" transform="translate(319,569)"/>
<path d="M0 0 C0.99 0.33 1.98 0.66 3 1 C2.67 8.59 2.34 16.18 2 24 C1.67 24 1.34 24 1 24 C0.67 16.08 0.34 8.16 0 0 Z " fill="#7183AF" transform="translate(334,535)"/>
<path d="M0 0 C-0.66 3.96 -1.32 7.92 -2 12 C-2.66 12 -3.32 12 -4 12 C-4 8.37 -4 4.74 -4 1 C-2 0 -2 0 0 0 Z " fill="#7088BC" transform="translate(271,535)"/>
<path d="M0 0 C-0.33 0.66 -0.66 1.32 -1 2 C-3.32375692 2.39460023 -5.6593935 2.72230092 -8 3 C-9.33917261 3.30903983 -10.67653254 3.62942911 -12 4 C-12 3.01 -12 2.02 -12 1 C-8.0186217 -0.3271261 -4.14954773 -0.06915913 0 0 Z " fill="#C1D5FE" transform="translate(277,505)"/>
<path d="M0 0 C0.33 0 0.66 0 1 0 C1 4.95 1 9.9 1 15 C1.66 15 2.32 15 3 15 C2.67 16.32 2.34 17.64 2 19 C0 17 0 17 -0.1953125 13.0859375 C-0.18200376 11.51550649 -0.15813602 9.94513779 -0.125 8.375 C-0.11597656 7.57320312 -0.10695313 6.77140625 -0.09765625 5.9453125 C-0.07406223 3.96341477 -0.03819065 1.98167019 0 0 Z " fill="#AFBADB" transform="translate(320,546)"/>
<path d="M0 0 C0.99 0.495 0.99 0.495 2 1 C5.37822416 1.14375422 7.77390955 1.07536348 11 0 C11 0.66 11 1.32 11 2 C7.3558226 4.4294516 5.28758728 4.16179575 1 4 C0.67 2.68 0.34 1.36 0 0 Z " fill="#2965C5" transform="translate(326,573)"/>
<path d="M0 0 C2 1.75 2 1.75 4 4 C4 5.32 4 6.64 4 8 C2.68 8 1.36 8 0 8 C0 5.36 0 2.72 0 0 Z " fill="#31549D" transform="translate(319,561)"/>
<path d="M0 0 C0.33 0 0.66 0 1 0 C1 2.31 1 4.62 1 7 C-0.65 7.66 -2.3 8.32 -4 9 C-4 9.66 -4 10.32 -4 11 C-4.66 10.67 -5.32 10.34 -6 10 C-5.67 9.34 -5.34 8.68 -5 8 C-4.34 8 -3.68 8 -3 8 C-1.58622659 5.36095629 -0.62759865 2.92879371 0 0 Z " fill="#234792" transform="translate(318,565)"/>
<path d="M0 0 C-0.66 1.32 -1.32 2.64 -2 4 C-2.66 4 -3.32 4 -4 4 C-4 4.66 -4 5.32 -4 6 C-5.32 6.33 -6.64 6.66 -8 7 C-3.53191489 0 -3.53191489 0 0 0 Z " fill="#6885C1" transform="translate(330,535)"/>
<path d="M0 0 C0.7425 0.61875 1.485 1.2375 2.25 1.875 C4.48801188 3.60437281 6.43739987 4.86106661 9 6 C5.98968256 6.93423645 5.13349732 7.04449911 2 6 C0.8125 2.9375 0.8125 2.9375 0 0 Z " fill="#2A69CA" transform="translate(269,571)"/>
<path d="M0 0 C2.97 0 5.94 0 9 0 C8.01 0.495 8.01 0.495 7 1 C7 1.66 7 2.32 7 3 C5.68 3 4.36 3 3 3 C3 2.34 3 1.68 3 1 C2.01 1.33 1.02 1.66 0 2 C0 1.34 0 0.68 0 0 Z " fill="#8CACE3" transform="translate(327,534)"/>
</svg>
